<?xml version="1.0" encoding="UTF-8" standalone="no"?>
<!-- Created with Inkscape (http://www.inkscape.org/) -->

<svg
   width="2047.9999"
   height="2047.9999"
   viewBox="0 0 541.86663 541.86663"
   version="1.1"
   id="svg1"
   inkscape:export-filename="ptyxis.png"
   inkscape:export-xdpi="96"
   inkscape:export-ydpi="96"
   xmlns:inkscape="http://www.inkscape.org/namespaces/inkscape"
   xmlns:sodipodi="http://sodipodi.sourceforge.net/DTD/sodipodi-0.dtd"
   xmlns:xlink="http://www.w3.org/1999/xlink"
   xmlns="http://www.w3.org/2000/svg"
   xmlns:svg="http://www.w3.org/2000/svg">
  <sodipodi:namedview
     id="namedview1"
     pagecolor="#ffffff"
     bordercolor="#000000"
     borderopacity="0.25"
     inkscape:showpageshadow="2"
     inkscape:pageopacity="0.0"
     inkscape:pagecheckerboard="0"
     inkscape:deskcolor="#d1d1d1"
     inkscape:document-units="mm">
    <inkscape:page
       x="0"
       y="0"
       width="541.86664"
       height="541.86664"
       id="page2"
       margin="0"
       bleed="0" />
  </sodipodi:namedview>
  <defs
     id="defs1">
    <linearGradient
       id="linearGradient92"
       inkscape:collect="always">
      <stop
         style="stop-color:#fc8000;stop-opacity:1;"
         offset="0.09794383"
         id="stop92" />
      <stop
         style="stop-color:#76eef6;stop-opacity:1;"
         offset="0.89783835"
         id="stop93" />
    </linearGradient>
    <linearGradient
       inkscape:collect="always"
       xlink:href="#linearGradient92"
       id="linearGradient93"
       x1="303.1774"
       y1="92.120697"
       x2="303.1774"
       y2="605.87512"
       gradientUnits="userSpaceOnUse" />
  </defs>
  <g
     inkscape:label="Layer 1"
     inkscape:groupmode="layer"
     id="layer1"
     transform="translate(-32.244069,-78.064586)">
    <rect
       style="fill:url(#linearGradient93);fill-opacity:1;stroke:none;stroke-width:1.34561;stroke-opacity:1"
       id="rect92"
       width="513.75446"
       height="414.15439"
       x="46.300175"
       y="141.92073"
       ry="103.97624" />
    <path
       id="rect96"
       style="fill:#ffffff;fill-opacity:1;stroke:none;stroke-width:1.15698;stroke-opacity:1"
       d="m 99.337648,213.28579 c -3.969136,-0.15651 -7.972022,1.40202 -10.836548,4.60954 -5.09249,5.70224 -4.601539,14.39262 1.100708,19.48511 l 53.936762,48.16916 -52.044371,46.47933 c -5.702247,5.09249 -6.193198,13.78287 -1.100708,19.48511 5.09249,5.70225 13.782869,6.1932 19.485119,1.10071 l 63.54754,-56.75209 c 5.70225,-5.09249 6.1932,-13.78287 1.10071,-19.48511 -0.60612,-0.67869 -1.26625,-1.27827 -1.96319,-1.80868 -0.32246,-0.35407 -0.66458,-0.69589 -1.02991,-1.02216 l -63.54754,-56.75209 c -2.49474,-2.22797 -5.56147,-3.3871 -8.648572,-3.50883 z M 167.2441,344.46435 c -7.6452,0 -13.80019,6.15499 -13.80019,13.80019 0,7.6452 6.15499,13.80019 13.80019,13.80019 h 85.19996 c 7.64521,0 13.8002,-6.15499 13.8002,-13.80019 0,-7.6452 -6.15499,-13.80019 -13.8002,-13.80019 z" />
  </g>
</svg>
